<?xml version="1.0" encoding="UTF-8"?>
<svg id="Layer_1" data-name="Layer 1" xmlns="http://www.w3.org/2000/svg" xmlns:xlink="http://www.w3.org/1999/xlink" viewBox="0 0 1030.76 220.17">
  <defs>
    <style>
      .cls-1 {
        fill: url(#linear-gradient-2);
      }

      .cls-2 {
        fill: url(#linear-gradient-4);
      }

      .cls-3 {
        fill: url(#linear-gradient-3);
      }

      .cls-4 {
        fill: url(#linear-gradient-5);
      }

      .cls-5 {
        fill: url(#linear-gradient-6);
      }

      .cls-6 {
        fill: url(#linear-gradient);
      }

      .cls-7 {
        fill: #275544;
      }

      .cls-8 {
        fill: #6b9080;
      }
    </style>
    <linearGradient id="linear-gradient" x1="239.69" y1="145.96" x2="1030.76" y2="145.96" gradientUnits="userSpaceOnUse">
      <stop offset=".27" stop-color="#275544"/>
      <stop offset=".35" stop-color="#295645"/>
      <stop offset=".39" stop-color="#305d4c"/>
      <stop offset=".42" stop-color="#3d6857"/>
      <stop offset=".44" stop-color="#4e7766"/>
      <stop offset=".46" stop-color="#658b7b"/>
      <stop offset=".46" stop-color="#688d7d"/>
      <stop offset="1" stop-color="#6b9080"/>
    </linearGradient>
    <linearGradient id="linear-gradient-2" x1="7.55" y1="113.22" x2="89.24" y2="113.22" gradientUnits="userSpaceOnUse">
      <stop offset="0" stop-color="#275544"/>
      <stop offset="1" stop-color="#6b9080"/>
    </linearGradient>
    <linearGradient id="linear-gradient-3" x1="94.02" y1="40.06" x2="136.77" y2="40.06" xlink:href="#linear-gradient-2"/>
    <linearGradient id="linear-gradient-4" x1="0" y1="171.48" x2="95.08" y2="171.48" xlink:href="#linear-gradient-2"/>
    <linearGradient id="linear-gradient-5" x1="158.63" y1="95.88" x2="220.18" y2="95.88" xlink:href="#linear-gradient-2"/>
    <linearGradient id="linear-gradient-6" x1="65.81" y1="196.75" x2="110.9" y2="196.75" xlink:href="#linear-gradient-2"/>
  </defs>
  <g>
    <path class="cls-7" d="M244.7,72.24l4.7-42.57h12.26l6.16,22.75,2.06,9.6,1.72-9.6,5.7-22.75h11.8l5.21,42.57h-8.74l-2.09-23.86-.69-12.06-2.78,12.26-6.88,23.98h-7.1l-7.33-23.98-2.92-12.26-.8,12.06-1.89,23.86h-8.39Z"/>
    <path class="cls-7" d="M301.68,72.24V29.67h25.98v6.76h-17.05v10.69h12.92v6.62h-12.92v11.6h18.85v6.9h-27.79Z"/>
    <path class="cls-7" d="M336.34,72.24V29.67h3.67c.8,0,1.81-.04,3.04-.11,1.22-.08,2.53-.15,3.92-.23,1.39-.08,2.74-.11,4.04-.11,7.09,0,12.3,1.8,15.64,5.41,3.34,3.61,5.01,8.67,5.01,15.18,0,4.85-.85,8.99-2.55,12.42-1.7,3.43-4.14,6.04-7.32,7.84-3.18,1.8-7,2.67-11.45,2.64-1.83-.04-3.68-.12-5.53-.26-1.85-.13-3.57-.2-5.16-.2h-3.32ZM345.34,65.57c.73.19,1.61.32,2.66.4,1.05.08,2.09.11,3.12.09,2.23-.02,4.19-.56,5.87-1.63,1.68-1.07,2.99-2.73,3.94-4.97s1.42-5.14,1.42-8.69-.45-6.66-1.35-8.85c-.9-2.2-2.24-3.78-4.04-4.74-1.8-.96-4.05-1.45-6.76-1.45-.88,0-1.77.04-2.66.11-.9.08-1.63.17-2.21.29v29.45Z"/>
    <path class="cls-7" d="M379.46,72.24V29.67h9.05v42.57h-9.05Z"/>
    <path class="cls-7" d="M396.47,51.07c0-3.57.54-6.72,1.63-9.44s2.6-5,4.53-6.85c1.93-1.84,4.16-3.23,6.69-4.17,2.53-.94,5.24-1.4,8.12-1.4,2.04,0,3.76.11,5.14.33,1.38.22,2.55.46,3.5.72.94.26,1.79.46,2.53.62l-1.2,7.79c-.36-.23-.91-.53-1.65-.9-.74-.37-1.73-.71-2.98-1-1.25-.3-2.81-.44-4.68-.44-2.43,0-4.57.56-6.45,1.69-1.87,1.13-3.34,2.75-4.41,4.87-1.07,2.12-1.6,4.68-1.6,7.68s.49,5.63,1.48,7.91c.98,2.27,2.43,4.05,4.34,5.34,1.91,1.29,4.24,1.93,6.99,1.93,1.28,0,2.58-.14,3.9-.43,1.32-.29,2.49-.63,3.52-1.05,1.03-.41,1.8-.82,2.29-1.22v7.42c-.76.31-1.64.63-2.64.97-.99.34-2.13.64-3.42.89-1.29.25-2.78.37-4.48.37-4.43,0-8.22-.89-11.37-2.68-3.15-1.79-5.57-4.3-7.25-7.55-1.68-3.25-2.52-7.05-2.52-11.4Z"/>
    <path class="cls-7" d="M440.08,72.24h-9.43l15.41-42.94h9.68l15.38,42.94h-9.57l-9.43-30.14-1.32-4.93-1.35,4.93-9.4,30.14ZM439.39,63.22l1.17-6.39h19.54l1.17,6.39h-21.89Z"/>
    <path class="cls-7" d="M475.77,72.24V29.67h8.88v35.38h15.38v7.19h-24.26Z"/>
    <path class="cls-7" d="M513.38,72.24l4.7-42.57h12.26l6.16,22.75,2.06,9.6,1.72-9.6,5.7-22.75h11.8l5.21,42.57h-8.74l-2.09-23.86-.69-12.06-2.78,12.26-6.88,23.98h-7.1l-7.33-23.98-2.92-12.26-.8,12.06-1.89,23.86h-8.39Z"/>
    <path class="cls-7" d="M574.89,72.24h-9.43l15.41-42.94h9.68l15.38,42.94h-9.57l-9.43-30.14-1.32-4.93-1.35,4.93-9.4,30.14ZM574.2,63.22l1.18-6.39h19.54l1.18,6.39h-21.89Z"/>
    <path class="cls-7" d="M619.55,72.24h-8.97V29.67h3.38c1.45,0,3.14-.08,5.07-.23,1.93-.15,4.24-.23,6.93-.23,1.99,0,3.9.21,5.73.64,1.83.43,3.47,1.14,4.91,2.12s2.58,2.31,3.42,3.97c.84,1.66,1.26,3.72,1.26,6.19,0,2.77-.46,5.07-1.37,6.89-.92,1.82-2.2,3.25-3.85,4.27s-3.59,1.7-5.8,2.05c-.76.11-1.54.23-2.32.33-.78.11-1.81.19-3.09.26-1.28.07-3.05.1-5.3.1v16.21ZM619.55,49.72c.4.06.96.11,1.69.14.72.04,1.47.06,2.22.06h1.82c2.43,0,4.24-.68,5.46-2.05,1.21-1.36,1.82-3.2,1.82-5.51,0-1.3-.22-2.46-.67-3.48-.45-1.02-1.24-1.82-2.36-2.41-1.13-.58-2.7-.87-4.73-.87-.9,0-1.8.04-2.72.13-.92.09-1.76.21-2.52.39v13.61ZM634.28,72.24c-.25-.32-.46-.69-.64-1.1-.18-.41-.48-1.07-.9-1.99-.59-1.28-1.14-2.66-1.65-4.15-.51-1.49-1.04-2.91-1.59-4.27-.55-1.36-1.19-2.48-1.92-3.38s-1.6-1.38-2.64-1.46l2.52-1.98,5.59-.37c1.09.48,2.05,1.29,2.88,2.45.83,1.16,1.59,2.49,2.29,4s1.39,3.07,2.06,4.67c.68,1.6,1.41,3.09,2.19,4.47.29.54.58,1.06.87,1.58.3.52.59,1.03.87,1.55h-9.94Z"/>
    <path class="cls-7" d="M650.98,72.24V29.67h9.05v42.57h-9.05Z"/>
    <path class="cls-7" d="M666.62,81.52l-2.15-4.56c1.41-.55,2.81-1.39,4.18-2.51s2.36-2.75,2.95-4.88c.44-1.57.7-3.51.79-5.84.09-2.33.13-5.17.13-8.51v-25.55h9v25.44c0,2.77.01,5.39.04,7.85.03,2.46-.16,4.71-.56,6.73-.36,1.97-1.08,3.69-2.16,5.16-1.08,1.47-2.34,2.69-3.78,3.67s-2.91,1.71-4.4,2.21c-1.49.5-2.84.76-4.04.8Z"/>
    <path class="cls-7" d="M708.36,72.7c-4.2,0-7.57-.75-10.11-2.25-2.54-1.5-4.38-3.62-5.52-6.36-1.14-2.74-1.7-5.97-1.7-9.7l.09-24.72h8.94l-.11,23.43c0,3.34.32,5.92.96,7.72.64,1.8,1.58,3.06,2.84,3.75,1.25.7,2.78,1.05,4.6,1.05s3.21-.36,4.41-1.07c1.2-.72,2.11-1.98,2.74-3.8.62-1.81.93-4.36.93-7.65v-23.43h8.85v24.87c0,5.75-1.37,10.21-4.1,13.39s-7,4.77-12.81,4.77Z"/>
    <path class="cls-7" d="M738.61,72.24h-9.43l15.41-42.94h9.68l15.38,42.94h-9.57l-9.43-30.14-1.32-4.93-1.35,4.93-9.4,30.14ZM737.92,63.22l1.17-6.39h19.54l1.18,6.39h-21.89Z"/>
    <path class="cls-7" d="M774.31,72.24V29.67h8.31l15.96,25.18,5.56,11.09h-1.98l-1.29-14.3v-21.97h8.19v42.57h-8.88l-15.24-24.41-6.39-12.61h2.41l1.49,15.5v21.51h-8.14Z"/>
    <path class="cls-7" d="M823.15,72.24h-9.42l15.41-42.94h9.68l15.38,42.94h-9.57l-9.43-30.14-1.32-4.93-1.35,4.93-9.4,30.14ZM822.46,63.22l1.17-6.39h19.54l1.18,6.39h-21.89Z"/>
    <path class="cls-7" d="M865.44,51.07c0-3.57.54-6.72,1.63-9.44s2.6-5,4.53-6.85,4.16-3.23,6.69-4.17c2.53-.94,5.24-1.4,8.12-1.4,2.04,0,3.76.11,5.14.33,1.38.22,2.55.46,3.49.72.95.26,1.79.46,2.54.62l-1.2,7.79c-.36-.23-.91-.53-1.65-.9-.74-.37-1.73-.71-2.98-1-1.25-.3-2.81-.44-4.68-.44-2.43,0-4.57.56-6.44,1.69-1.87,1.13-3.34,2.75-4.41,4.87-1.07,2.12-1.6,4.68-1.6,7.68s.49,5.63,1.48,7.91c.98,2.27,2.43,4.05,4.34,5.34,1.91,1.29,4.24,1.93,6.99,1.93,1.28,0,2.58-.14,3.9-.43,1.32-.29,2.49-.63,3.52-1.05,1.03-.41,1.8-.82,2.29-1.22v7.42c-.76.31-1.64.63-2.64.97-.99.34-2.14.64-3.42.89-1.29.25-2.78.37-4.48.37-4.43,0-8.22-.89-11.37-2.68-3.15-1.79-5.57-4.3-7.25-7.55-1.68-3.25-2.52-7.05-2.52-11.4Z"/>
    <path class="cls-7" d="M909.03,72.24h-9.42l15.41-42.94h9.68l15.38,42.94h-9.57l-9.43-30.14-1.32-4.93-1.35,4.93-9.4,30.14ZM908.35,63.22l1.17-6.39h19.54l1.18,6.39h-21.89Z"/>
    <path class="cls-7" d="M953.7,72.24h-8.97V29.67h3.38c1.45,0,3.14-.08,5.07-.23,1.93-.15,4.24-.23,6.93-.23,1.99,0,3.9.21,5.73.64,1.83.43,3.47,1.14,4.91,2.12,1.44.98,2.58,2.31,3.42,3.97s1.26,3.72,1.26,6.19c0,2.77-.46,5.07-1.37,6.89-.92,1.82-2.2,3.25-3.85,4.27s-3.59,1.7-5.8,2.05c-.76.11-1.54.23-2.32.33-.78.11-1.81.19-3.09.26-1.28.07-3.05.1-5.3.1v16.21ZM953.7,49.72c.4.06.96.11,1.69.14s1.47.06,2.22.06h1.82c2.43,0,4.25-.68,5.46-2.05,1.21-1.36,1.82-3.2,1.82-5.51,0-1.3-.22-2.46-.67-3.48-.45-1.02-1.24-1.82-2.36-2.41-1.13-.58-2.7-.87-4.73-.87-.9,0-1.8.04-2.72.13s-1.76.21-2.52.39v13.61ZM968.42,72.24c-.25-.32-.46-.69-.64-1.1-.18-.41-.48-1.07-.9-1.99-.59-1.28-1.14-2.66-1.65-4.15s-1.04-2.91-1.59-4.27c-.55-1.36-1.19-2.48-1.92-3.38-.73-.9-1.6-1.38-2.64-1.46l2.52-1.98,5.59-.37c1.09.48,2.05,1.29,2.88,2.45.83,1.16,1.59,2.49,2.29,4s1.39,3.07,2.06,4.67c.68,1.6,1.41,3.09,2.19,4.47.29.54.58,1.06.87,1.58.3.52.59,1.03.87,1.55h-9.94Z"/>
    <path class="cls-7" d="M984.49,72.24V29.67h3.67c.8,0,1.81-.04,3.04-.11s2.53-.15,3.92-.23,2.74-.11,4.04-.11c7.09,0,12.3,1.8,15.64,5.41s5.01,8.67,5.01,15.18c0,4.85-.85,8.99-2.55,12.42-1.7,3.43-4.14,6.04-7.32,7.84-3.18,1.8-7,2.67-11.44,2.64-1.83-.04-3.68-.12-5.53-.26-1.85-.13-3.57-.2-5.16-.2h-3.32ZM993.49,65.57c.72.19,1.61.32,2.66.4,1.05.08,2.09.11,3.12.09,2.23-.02,4.19-.56,5.87-1.63,1.68-1.07,2.99-2.73,3.94-4.97s1.42-5.14,1.42-8.69-.45-6.66-1.35-8.85c-.9-2.2-2.24-3.78-4.04-4.74-1.8-.96-4.05-1.45-6.76-1.45-.88,0-1.77.04-2.66.11-.9.08-1.63.17-2.21.29v29.45Z"/>
  </g>
  <g>
    <g>
      <path class="cls-6" d="M239.69,146.22c0-8.21,1.25-15.45,3.76-21.71,2.5-6.26,5.97-11.51,10.41-15.75,4.44-4.24,9.56-7.43,15.39-9.59,5.82-2.15,12.05-3.23,18.68-3.23,4.7,0,8.64.25,11.83.76,3.18.51,5.86,1.05,8.04,1.65,2.17.59,4.12,1.07,5.83,1.42l-2.77,17.92c-.84-.53-2.1-1.22-3.79-2.07-1.69-.86-3.98-1.62-6.85-2.31-2.88-.68-6.47-1.02-10.77-1.02-5.58,0-10.52,1.3-14.83,3.89-4.31,2.59-7.69,6.32-10.15,11.2-2.46,4.88-3.69,10.76-3.69,17.66s1.13,12.96,3.39,18.19c2.26,5.23,5.59,9.32,9.98,12.29,4.39,2.97,9.75,4.45,16.08,4.45,2.94,0,5.93-.33,8.96-.99,3.03-.66,5.73-1.46,8.1-2.41,2.37-.94,4.13-1.88,5.27-2.8v17.07c-1.76.7-3.78,1.45-6.06,2.24-2.28.79-4.91,1.47-7.87,2.04-2.97.57-6.4.86-10.31.86-10.19,0-18.91-2.05-26.16-6.16-7.25-4.11-12.81-9.89-16.67-17.36-3.87-7.47-5.8-16.21-5.8-26.22Z"/>
      <path class="cls-6" d="M339.98,194.91h-21.68l35.45-98.77h22.27l35.38,98.77h-22.01l-21.68-69.32-3.03-11.33-3.1,11.33-21.61,69.32ZM338.4,174.16l2.7-14.69h44.94l2.7,14.69h-50.34Z"/>
      <path class="cls-6" d="M422.08,194.91v-97.91h20.43v81.37h35.38v16.54h-55.81Z"/>
      <path class="cls-6" d="M494.16,194.91v-97.91h20.82v97.91h-20.82Z"/>
      <path class="cls-6" d="M538.5,194.91v-97.91h59.24v15.55h-38.61v26.62h29.12v15.42h-29.12v40.32h-20.62Z"/>
      <path class="cls-6" d="M647.62,195.97c-9.4.17-17.48-1.83-24.25-6.03-6.77-4.2-11.9-10.13-15.42-17.79-3.52-7.66-5.18-16.59-5.01-26.78.22-11.29,2.37-20.55,6.46-27.77,4.09-7.22,9.6-12.6,16.54-16.11,6.94-3.51,14.8-5.36,23.59-5.53,9-.18,16.79,1.77,23.36,5.83,6.57,4.06,11.6,9.86,15.09,17.39,3.49,7.53,5.13,16.42,4.91,26.65-.22,11.29-2.28,20.61-6.19,27.97-3.91,7.36-9.22,12.85-15.95,16.47-6.72,3.62-14.43,5.52-23.13,5.7ZM648.01,180.81c7.34,0,13.16-2.88,17.46-8.63s6.46-14.76,6.46-27.01c0-6.41-.85-12.17-2.54-17.26-1.69-5.09-4.23-9.13-7.61-12.09-3.38-2.97-7.62-4.45-12.72-4.45-4.57,0-8.75,1.14-12.55,3.43-3.8,2.28-6.84,5.97-9.13,11.07-2.28,5.1-3.43,11.86-3.43,20.29,0,6.46.9,12.3,2.7,17.53,1.8,5.23,4.48,9.39,8.04,12.49,3.56,3.1,7.99,4.65,13.31,4.65Z"/>
      <path class="cls-6" d="M730.37,194.91h-20.62v-97.91h7.78c3.34,0,7.23-.17,11.66-.53,4.44-.35,9.75-.53,15.95-.53,4.57,0,8.96.49,13.18,1.48,4.22.99,7.98,2.61,11.3,4.88s5.94,5.3,7.87,9.12c1.93,3.82,2.9,8.57,2.9,14.23,0,6.37-1.05,11.65-3.16,15.85-2.11,4.2-5.06,7.47-8.86,9.82-3.8,2.35-8.25,3.92-13.34,4.71-1.76.26-3.54.52-5.34.76-1.8.24-4.17.44-7.12.59s-7.01.23-12.19.23v37.29ZM730.37,143.12c.92.13,2.22.24,3.89.33,1.67.09,3.37.13,5.11.13h4.18c5.58,0,9.76-1.57,12.55-4.71,2.79-3.14,4.18-7.37,4.18-12.68,0-2.99-.52-5.65-1.55-8-1.03-2.35-2.84-4.19-5.44-5.53-2.59-1.34-6.22-2.01-10.87-2.01-2.07,0-4.15.1-6.26.3-2.11.2-4.04.49-5.8.89v31.3ZM764.24,194.91c-.57-.75-1.06-1.59-1.48-2.54-.42-.94-1.11-2.47-2.08-4.58-1.36-2.94-2.62-6.13-3.79-9.55-1.16-3.43-2.38-6.7-3.66-9.82-1.27-3.12-2.75-5.71-4.41-7.78-1.67-2.06-3.69-3.18-6.06-3.36l5.8-4.55,12.85-.86c2.5,1.1,4.71,2.98,6.62,5.63s3.67,5.72,5.27,9.19c1.6,3.47,3.18,7.05,4.74,10.74,1.56,3.69,3.24,7.12,5.04,10.28.66,1.23,1.33,2.44,2.01,3.62.68,1.19,1.35,2.37,2.01,3.56h-22.86Z"/>
      <path class="cls-6" d="M801.2,194.91v-97.91h19.11l36.7,57.92,12.78,25.5h-4.55l-2.97-32.88v-50.54h18.84v97.91h-20.43l-35.05-56.14-14.69-28.99h5.53l3.43,35.65v49.48h-18.71Z"/>
      <path class="cls-6" d="M904.58,194.91v-97.91h20.82v97.91h-20.82Z"/>
      <path class="cls-6" d="M959.34,194.91h-21.68l35.45-98.77h22.27l35.38,98.77h-22.01l-21.68-69.32-3.03-11.33-3.1,11.33-21.61,69.32ZM957.76,174.16l2.7-14.69h44.94l2.7,14.69h-50.34Z"/>
    </g>
    <g>
      <path class="cls-8" d="M239.69,146.22c0-8.21,1.25-15.45,3.76-21.71,2.5-6.26,5.97-11.51,10.41-15.75,4.44-4.24,9.56-7.43,15.39-9.59,5.82-2.15,12.05-3.23,18.68-3.23,4.7,0,8.64.25,11.83.76,3.18.51,5.86,1.05,8.04,1.65,2.17.59,4.12,1.07,5.83,1.42l-2.77,17.92c-.84-.53-2.1-1.22-3.79-2.07-1.69-.86-3.98-1.62-6.85-2.31-2.88-.68-6.47-1.02-10.77-1.02-5.58,0-10.52,1.3-14.83,3.89-4.31,2.59-7.69,6.32-10.15,11.2-2.46,4.88-3.69,10.76-3.69,17.66s1.13,12.96,3.39,18.19c2.26,5.23,5.59,9.32,9.98,12.29,4.39,2.97,9.75,4.45,16.08,4.45,2.94,0,5.93-.33,8.96-.99,3.03-.66,5.73-1.46,8.1-2.41,2.37-.94,4.13-1.88,5.27-2.8v17.07c-1.76.7-3.78,1.45-6.06,2.24-2.28.79-4.91,1.47-7.87,2.04-2.97.57-6.4.86-10.31.86-10.19,0-18.91-2.05-26.16-6.16-7.25-4.11-12.81-9.89-16.67-17.36-3.87-7.47-5.8-16.21-5.8-26.22Z"/>
      <path class="cls-8" d="M339.98,194.91h-21.68l35.45-98.77h22.27l35.38,98.77h-22.01l-21.68-69.32-3.03-11.33-3.1,11.33-21.61,69.32ZM338.4,174.16l2.7-14.69h44.94l2.7,14.69h-50.34Z"/>
      <path class="cls-8" d="M422.08,194.91v-97.91h20.43v81.37h35.38v16.54h-55.81Z"/>
      <path class="cls-8" d="M494.16,194.91v-97.91h20.82v97.91h-20.82Z"/>
      <path class="cls-8" d="M538.5,194.91v-97.91h59.24v15.55h-38.61v26.62h29.12v15.42h-29.12v40.32h-20.62Z"/>
      <path class="cls-8" d="M647.62,195.97c-9.4.17-17.48-1.83-24.25-6.03-6.77-4.2-11.9-10.13-15.42-17.79-3.52-7.66-5.18-16.59-5.01-26.78.22-11.29,2.37-20.55,6.46-27.77,4.09-7.22,9.6-12.6,16.54-16.11,6.94-3.51,14.8-5.36,23.59-5.53,9-.18,16.79,1.77,23.36,5.83,6.57,4.06,11.6,9.86,15.09,17.39,3.49,7.53,5.13,16.42,4.91,26.65-.22,11.29-2.28,20.61-6.19,27.97-3.91,7.36-9.22,12.85-15.95,16.47-6.72,3.62-14.43,5.52-23.13,5.7ZM648.01,180.81c7.34,0,13.16-2.88,17.46-8.63s6.46-14.76,6.46-27.01c0-6.41-.85-12.17-2.54-17.26-1.69-5.09-4.23-9.13-7.61-12.09-3.38-2.97-7.62-4.45-12.72-4.45-4.57,0-8.75,1.14-12.55,3.43-3.8,2.28-6.84,5.97-9.13,11.07-2.28,5.1-3.43,11.86-3.43,20.29,0,6.46.9,12.3,2.7,17.53,1.8,5.23,4.48,9.39,8.04,12.49,3.56,3.1,7.99,4.65,13.31,4.65Z"/>
      <path class="cls-8" d="M730.37,194.91h-20.62v-97.91h7.78c3.34,0,7.23-.17,11.66-.53,4.44-.35,9.75-.53,15.95-.53,4.57,0,8.96.49,13.18,1.48,4.22.99,7.98,2.61,11.3,4.88s5.94,5.3,7.87,9.12c1.93,3.82,2.9,8.57,2.9,14.23,0,6.37-1.05,11.65-3.16,15.85-2.11,4.2-5.06,7.47-8.86,9.82-3.8,2.35-8.25,3.92-13.34,4.71-1.76.26-3.54.52-5.34.76-1.8.24-4.17.44-7.12.59s-7.01.23-12.19.23v37.29ZM730.37,143.12c.92.13,2.22.24,3.89.33,1.67.09,3.37.13,5.11.13h4.18c5.58,0,9.76-1.57,12.55-4.71,2.79-3.14,4.18-7.37,4.18-12.68,0-2.99-.52-5.65-1.55-8-1.03-2.35-2.84-4.19-5.44-5.53-2.59-1.34-6.22-2.01-10.87-2.01-2.07,0-4.15.1-6.26.3-2.11.2-4.04.49-5.8.89v31.3ZM764.24,194.91c-.57-.75-1.06-1.59-1.48-2.54-.42-.94-1.11-2.47-2.08-4.58-1.36-2.94-2.62-6.13-3.79-9.55-1.16-3.43-2.38-6.7-3.66-9.82-1.27-3.12-2.75-5.71-4.41-7.78-1.67-2.06-3.69-3.18-6.06-3.36l5.8-4.55,12.85-.86c2.5,1.1,4.71,2.98,6.62,5.63s3.67,5.72,5.27,9.19c1.6,3.47,3.18,7.05,4.74,10.74,1.56,3.69,3.24,7.12,5.04,10.28.66,1.23,1.33,2.44,2.01,3.62.68,1.19,1.35,2.37,2.01,3.56h-22.86Z"/>
      <path class="cls-8" d="M801.2,194.91v-97.91h19.11l36.7,57.92,12.78,25.5h-4.55l-2.97-32.88v-50.54h18.84v97.91h-20.43l-35.05-56.14-14.69-28.99h5.53l3.43,35.65v49.48h-18.71Z"/>
      <path class="cls-8" d="M904.58,194.91v-97.91h20.82v97.91h-20.82Z"/>
      <path class="cls-8" d="M959.34,194.91h-21.68l35.45-98.77h22.27l35.38,98.77h-22.01l-21.68-69.32-3.03-11.33-3.1,11.33-21.61,69.32ZM957.76,174.16l2.7-14.69h44.94l2.7,14.69h-50.34Z"/>
    </g>
  </g>
  <g>
    <path class="cls-7" d="M155.93,109.3c1.45-.36,1.67.6,2.51,1.24,17.64,13.5,33.69,33.08,51.31,47.05,1.61,3.65,3.85,8.99,6.17,12.17,1.32,1.81,5.58,3.52,5.76,3.82,1.36,2.33-5.25,6.45-6.15,9.11-.78,2.32,1.2,8.02-1,13.11-.47,1.08-1.88.92-1.94,1.57-.04.41.18,5.92.37,6.17,1.12,1.55,10.33-.17,3.21,9.12l-51.06,7.52c1.09-3.62-2.16-3.78-2.92-5.01-1.2-1.95-.76-6.38-3.75-10.42-2.05-2.76-14.1-13.29-17.04-12.93-1.73.21-3.07,2.97-5.52.42-.8-.83.28-6.24-1.57-7.54-1.77-1.25-9.05.31-11.96-.54-2.55-.75-3.93-5.2-5.6-6.07-3.31-1.7-10.83-2.13-14.61-2.14-2.41,0-3.46,1.45-5.82.1-5.26-2.99-.39-9.17-2.5-14.22-1.02-2.45-5.14-3.47-6.62-5.06-.78-.84-.99-2.39-1.75-3.25-3.65-4.1-7.23-7.78-8.7-13.39h18.34v19.17h40.43c.09,0,1.25-1.16,1.25-1.25v-17.92h19.17v-30.84Z"/>
    <path class="cls-7" d="M96.75,4.28v42.93c0,4.02-2.63,7.16-3.48,10.69-3.06,12.7-4.02,27.64-2.36,40.57h-15c-.21,0,.15,3.51,0,4.16-4.43.11-4.86-4.64-7.06-6.69-3.41-3.18-10.03-6.43-13.73-8.78-1.25-.79-2.39-4.17-4.23-4.94-1.67-.69-3.64-.08-4.99-.85-.77-.44-10.84-12.8-11.31-13.7-2.94-5.7-.98-10.22-2.41-15.09-1.5-5.08-9.91-9.12-10.45-14.64-.38-3.91,2.67-5.7,3.75-8.66,1.27-3.48,2.76-13.61,2.06-17.09-.53-2.63-3.92-3.85-1.61-8.71l70.81.78ZM40.9,46.79h12.5v12.5h10v-12.5h12.5v-9.17c-2.46-.41-10.96.92-12.14-.78-1.2-1.72.12-9.17-.36-11.73h-9.53c-1.37.19.37,9.98-.84,11.73s-9.68.36-12.14.78v9.17Z"/>
    <path class="cls-1" d="M75.91,137.65l-3.33-.83c-2.23,2.64,8.62,17.08,10.86,19.56,1.8,2,3.61,3.49,5.81,5.03-5.45.07-10.73-5.54-16.67-6.27l1.66-2.48c-1.53-.24-10.46-3.81-10.79-4.28-.26-.36.77-1.79.4-2.44-.62-1.09-7.39-3.32-8.88-5.35-.86-1.18.33-2.46.05-2.84s-7.08-3.56-8.28-4.29c-1.17-1.91,3.33-1.68,1.66-3.31-.46-.45-8.67-2.74-8.22-5.27.13-.73,1.51-1.57,1.51-1.83,0-.53-7.65-4.81-8.29-6.67l2.49-1.65c-1.33-.76-8.34-6.95-8.32-7.51.04-.81,2.71-1.07,2.48-1.66-1.69-2.15-5.94-4.96-6.61-7.59-.43-1.69,2.11-.61,1.61-2.4-1.72-1.94-4.76-3.96-5.03-6.74-.17-1.75,2.11-.63,1.67-2.38l-14.14-20.89c.53-1.11,2.3-.13,3.1.23,4.21,1.93,10.69,6.68,14.68,9.49.94.66,3.24,3.19,3.48,3.18.73-.04.96-2.48,1.72-2.54,2.21-.17,5.78,4.46,7.45,5.89.6.23.86-2.44,1.66-2.48,1.18-.06,6.16,7.46,6.66,7.46.26,0,1.08-1.37,1.84-1.52,2.78-.53,5.87,7.07,6.93,8.21.82.87,1.33-3.45,3.31-2.49l5.03,9.16,1.67-2.5c.93-.62,7.15,8.92,6.66,10.83l2.07-2.48c.39.53,2.08,1.81,2.08,2.07v29.59Z"/>
    <path class="cls-8" d="M132.59,83.46v18.34h18.76c.09,0,1.25,1.16,1.25,1.25v32.51c0,2.26-5.63.42-7.05.38-4.31-.13-8.66.17-12.95.04v19.17h-33.34l-.83-19.17h-19.17v-33.34h18.76c.09,0,1.25-1.16,1.25-1.25v-17.92h33.34ZM123.42,92.63h-15v19.17h-19.17v15h19.17v19.17h15v-19.17h19.17v-15h-19.17v-19.17Z"/>
    <path class="cls-3" d="M96.33,80.13c-2.32-.7-2.69-10.07-1.99-10.79.34-.35,2.16.16,2.41-.05.42-.35-1.94-8.74-.83-10.83l3.32.83c-.3-4.44-1.46-8.07.01-12.51l2.49.84c.09-3.93-.46-7.89.85-11.67l2.48,1.66.85-10,3.32.83c.45-3.56,4.05-27.94,5.43-28.34,1.57-.46,1.26.72,1.62,1.67,2.87,7.66,3.55,18.46,4.63,26.67l3.32-.83.85,10,2.48-.84c1.24,3.51.81,7.19.85,10.84l2.49-.83c.55,4.23.6,8.27.01,12.5l3.32-.83-.82,11.67,3.34-.4c-.86,1.67-1.04,10.41-2.93,10.41h-37.51Z"/>
    <path class="cls-2" d="M62.41,159.14c.32-.26-.27-1.54,1.3-1.5,2.35.06,6.39,2.61,7.6,2.56.45-.02.42-1.69.78-1.67,2.08.09,6.35,2.47,8.6,3.09,3.95,1.09,10.34-.49,10.29,5.61-.05,6.68-2.52,7.2,4.09,12.92-5.03.71-10.73,3.13-15.62,3.99-4.89.86-26.4,2.04-30.5,1-.64-.16-.53-1.57-1.12-1.68-1.99-.38-5.17,1.56-8.04.85-.63-.16-.52-1.49-1.14-1.63-1.92-.44-4.56.51-6.42-.14-1.13-.4-1.07-2.19-1.92-2.4-1.55-.38-3.66.42-5.51-.14-1.97-.59-6.94-4.41-8.4-4.99-2.6-1.05-15.77-2.58-16.35-3.18-.34-1.78.83-1.94,2.03-2.54,4.43-2.25,11.49-2.58,16.31-4.13l-.83-1.64,10-.86-.83-2.49c3.07.13,6.32-.61,9.16.83-1.11-5.13,6.34-1.54,8.7-1.66.5-.03.39-1.52,1.04-1.69,4.07-1.08,16.11,2.04,16.78,1.49Z"/>
    <path class="cls-4" d="M220.11,63.46c1.21,1.15-14.37,19.86-13.98,23.2,4.89,1.33-3.75,7.31-4.35,8.9-.23.62,1.59.57,2.1,1.21,1.22,1.52-4.8,7.26-6.27,8.8,5.02,1.98-3.79,7.6-6.66,8.76l3.31,2.07c0,1.47-8.2,5.38-9.15,6.26-.86.8,1.53.76,1.69,1.24.61,2.64-2.43,2.53-3.78,4.55l-23.81-22.02c-2.1-1.06,2.11-7.5,2.98-7.95,1.55-.8,1.2,3.23,2.89,1.66.34-.32,3.03-7.12,4.2-8.33l3.31,2.49c-.28-1.91,5.43-9.19,6.26-9.15.8.04,1.1,2.74,1.66,2.48,1.11-1.52,6.31-8.49,7.81-7.35.23.17,0,1.25.19,1.4,1.59,1.26,1.8-1.42,2.78-2.41,2.3-2.31,5.56-5.85,6.72-1.65,2.57-2.04,20.35-15.81,22.09-14.16Z"/>
    <path class="cls-5" d="M65.92,214.33c-1.07-1.39,6.53-12.19,7.98-14.09,4.16-5.46,15.4-17.04,21.43-19.41,2.6-1.02,15.41-3.02,15.57-.26.06,1.05-6.59,9.92-7.88,11.28-9.93,10.53-24.08,16.77-37.11,22.49Z"/>
  </g>
</svg>