<?xml version="1.0" encoding="UTF-8"?>
<svg id="Layer_1" xmlns="http://www.w3.org/2000/svg" version="1.1" xmlns:xlink="http://www.w3.org/1999/xlink" viewBox="0 0 220 200">
  <!-- Generator: Adobe Illustrator 29.6.1, SVG Export Plug-In . SVG Version: 2.1.1 Build 9)  -->
  <defs>
    <style>
      .st0 {
        fill: url(#linear-gradient2);
      }

      .st1 {
        fill: #275544;
      }

      .st2 {
        fill: #6b9080;
      }

      .st3 {
        fill: #fff;
      }

      .st4 {
        fill: url(#linear-gradient1);
      }

      .st5 {
        fill: url(#linear-gradient4);
      }

      .st6 {
        fill: url(#linear-gradient3);
      }

      .st7 {
        fill: url(#linear-gradient);
      }
    </style>
    <linearGradient id="linear-gradient" x1="37.11" y1="102.71" x2="92.35" y2="102.71" gradientTransform="translate(0 201.83) scale(1 -1)" gradientUnits="userSpaceOnUse">
      <stop offset="0" stop-color="#275544"/>
      <stop offset="1" stop-color="#6b9080"/>
    </linearGradient>
    <linearGradient id="linear-gradient1" x1="95.57" y1="152.17" x2="124.46" y2="152.17" gradientTransform="translate(0 201.83) scale(1 -1)" gradientUnits="userSpaceOnUse">
      <stop offset="0" stop-color="#275544"/>
      <stop offset="1" stop-color="#6b9080"/>
    </linearGradient>
    <linearGradient id="linear-gradient2" x1="32" y1="63.32" x2="96.28" y2="63.32" gradientTransform="translate(0 201.83) scale(1 -1)" gradientUnits="userSpaceOnUse">
      <stop offset="0" stop-color="#275544"/>
      <stop offset="1" stop-color="#6b9080"/>
    </linearGradient>
    <linearGradient id="linear-gradient3" x1="139.25" y1="114.43" x2="180.86" y2="114.43" gradientTransform="translate(0 201.83) scale(1 -1)" gradientUnits="userSpaceOnUse">
      <stop offset="0" stop-color="#275544"/>
      <stop offset="1" stop-color="#6b9080"/>
    </linearGradient>
    <linearGradient id="linear-gradient4" x1="76.5" y1="46.24" x2="106.98" y2="46.24" gradientTransform="translate(0 201.83) scale(1 -1)" gradientUnits="userSpaceOnUse">
      <stop offset="0" stop-color="#275544"/>
      <stop offset="1" stop-color="#6b9080"/>
    </linearGradient>
  </defs>
  <circle class="st3" cx="110" cy="100" r="100"/>
  <g>
    <path class="st1" d="M137.42,96.47c.98-.24,1.13.41,1.7.84,11.93,9.13,22.78,22.36,34.69,31.81,1.09,2.47,2.6,6.08,4.17,8.23.89,1.22,3.77,2.38,3.89,2.58.92,1.58-3.55,4.36-4.16,6.16-.53,1.57.81,5.42-.68,8.86-.32.73-1.27.62-1.31,1.06-.03.28.12,4,.25,4.17.76,1.05,6.98-.11,2.17,6.17l-34.52,5.08c.74-2.45-1.46-2.56-1.97-3.39-.81-1.32-.51-4.31-2.54-7.04-1.39-1.87-9.53-8.98-11.52-8.74-1.17.14-2.08,2.01-3.73.28-.54-.56.19-4.22-1.06-5.1-1.2-.85-6.12.21-8.09-.37-1.72-.51-2.66-3.52-3.79-4.1-2.24-1.15-7.32-1.44-9.88-1.45-1.63,0-2.34.98-3.93.07-3.56-2.02-.26-6.2-1.69-9.61-.69-1.66-3.47-2.35-4.48-3.42-.53-.57-.67-1.62-1.18-2.2-2.47-2.77-4.89-5.26-5.88-9.05h12.4v12.96h27.33c.06,0,.85-.78.85-.85v-12.12h12.96v-20.85h0Z"/>
    <path class="st1" d="M97.42,25.47v29.02c0,2.72-1.78,4.84-2.35,7.23-2.07,8.59-2.72,18.69-1.6,27.43h-10.14c-.14,0,.1,2.37,0,2.81-2.99.07-3.29-3.14-4.77-4.52-2.31-2.15-6.78-4.35-9.28-5.94-.85-.53-1.62-2.82-2.86-3.34-1.13-.47-2.46-.05-3.37-.57-.52-.3-7.33-8.65-7.65-9.26-1.99-3.85-.66-6.91-1.63-10.2-1.01-3.43-6.7-6.17-7.06-9.9-.26-2.64,1.81-3.85,2.54-5.85.86-2.35,1.87-9.2,1.39-11.55-.36-1.78-2.65-2.6-1.09-5.89l47.87.53h0ZM59.66,54.21h8.45v8.45h6.76v-8.45h8.45v-6.2c-1.66-.28-7.41.62-8.21-.53s.08-6.2-.24-7.93h-6.44c-.93.13.25,6.75-.57,7.93s-6.54.24-8.21.53v6.2h0Z"/>
    <path class="st7" d="M83.33,115.63l-2.25-.56c-1.51,1.78,5.83,11.55,7.34,13.22,1.22,1.35,2.44,2.36,3.93,3.4-3.68.05-7.25-3.75-11.27-4.24l1.12-1.68c-1.03-.16-7.07-2.58-7.29-2.89-.18-.24.52-1.21.27-1.65-.42-.74-5-2.24-6-3.62-.58-.8.22-1.66.03-1.92s-4.79-2.41-5.6-2.9c-.79-1.29,2.25-1.14,1.12-2.24-.31-.3-5.86-1.85-5.56-3.56.09-.49,1.02-1.06,1.02-1.24,0-.36-5.17-3.25-5.6-4.51l1.68-1.12c-.9-.51-5.64-4.7-5.62-5.08.03-.55,1.83-.72,1.68-1.12-1.14-1.45-4.02-3.35-4.47-5.13-.29-1.14,1.43-.41,1.09-1.62-1.16-1.31-3.22-2.68-3.4-4.56-.11-1.18,1.43-.43,1.13-1.61l-9.56-14.12c.36-.75,1.55-.09,2.1.16,2.85,1.3,7.23,4.52,9.92,6.42.64.45,2.19,2.16,2.35,2.15.49-.03.65-1.68,1.16-1.72,1.49-.11,3.91,3.02,5.04,3.98.41.16.58-1.65,1.12-1.68.8-.04,4.16,5.04,4.5,5.04.18,0,.73-.93,1.24-1.03,1.88-.36,3.97,4.78,4.69,5.55.55.59.9-2.33,2.24-1.68l3.4,6.19,1.13-1.69c.63-.42,4.83,6.03,4.5,7.32l1.4-1.68c.26.36,1.41,1.22,1.41,1.4v20h.01Z"/>
    <path class="st2" d="M121.65,79v12.4h12.68c.06,0,.85.78.85.85v21.98c0,1.53-3.81.28-4.77.26-2.91-.09-5.85.11-8.75.03v12.96h-22.54l-.56-12.96h-12.96v-22.54h12.68c.06,0,.85-.78.85-.85v-12.12h22.54-.01ZM115.45,85.2h-10.14v12.96h-12.96v10.14h12.96v12.96h10.14v-12.96h12.96v-10.14h-12.96v-12.96Z"/>
    <path class="st4" d="M97.13,76.75c-1.57-.47-1.82-6.81-1.35-7.29.23-.24,1.46.11,1.63-.03.28-.24-1.31-5.91-.56-7.32l2.24.56c-.2-3-.99-5.46,0-8.46l1.68.57c.06-2.66-.31-5.33.57-7.89l1.68,1.12.57-6.76,2.24.56c.3-2.41,2.74-18.89,3.67-19.16,1.06-.31.85.49,1.1,1.13,1.94,5.18,2.4,12.48,3.13,18.03l2.24-.56.57,6.76,1.68-.57c.84,2.37.55,4.86.57,7.33l1.68-.56c.37,2.86.41,5.59,0,8.45l2.24-.56-.55,7.89,2.26-.27c-.58,1.13-.7,7.04-1.98,7.04h-25.36,0Z"/>
    <path class="st0" d="M74.2,130.16c.22-.18-.18-1.04.88-1.01,1.59.04,4.32,1.76,5.14,1.73.3-.01.28-1.14.53-1.13,1.41.06,4.29,1.67,5.81,2.09,2.67.74,6.99-.33,6.96,3.79-.03,4.52-1.7,4.87,2.77,8.73-3.4.48-7.25,2.12-10.56,2.7-3.31.58-17.85,1.38-20.62.68-.43-.11-.36-1.06-.76-1.14-1.35-.26-3.5,1.05-5.44.57-.43-.11-.35-1.01-.77-1.1-1.3-.3-3.08.34-4.34-.09-.76-.27-.72-1.48-1.3-1.62-1.05-.26-2.47.28-3.73-.09-1.33-.4-4.69-2.98-5.68-3.37-1.76-.71-10.66-1.74-11.05-2.15-.23-1.2.56-1.31,1.37-1.72,2.99-1.52,7.77-1.74,11.03-2.79l-.56-1.11,6.76-.58-.56-1.68c2.08.09,4.27-.41,6.19.56-.75-3.47,4.29-1.04,5.88-1.12.34-.02.26-1.03.7-1.14,2.75-.73,10.89,1.38,11.34,1.01h0Z"/>
    <path class="st6" d="M180.81,65.48c.82.78-9.71,13.43-9.45,15.68,3.31.9-2.54,4.94-2.94,6.02-.16.42,1.07.39,1.42.82.82,1.03-3.25,4.91-4.24,5.95,3.39,1.34-2.56,5.14-4.5,5.92l2.24,1.4c0,.99-5.54,3.64-6.19,4.23-.58.54,1.03.51,1.14.84.41,1.78-1.64,1.71-2.56,3.08l-16.1-14.89c-1.42-.72,1.43-5.07,2.01-5.37,1.05-.54.81,2.18,1.95,1.12.23-.22,2.05-4.81,2.84-5.63l2.24,1.68c-.19-1.29,3.67-6.21,4.23-6.19.54.03.74,1.85,1.12,1.68.75-1.03,4.27-5.74,5.28-4.97.16.11,0,.85.13.95,1.07.85,1.22-.96,1.88-1.63,1.55-1.56,3.76-3.95,4.54-1.12,1.74-1.38,13.76-10.69,14.93-9.57h0Z"/>
    <path class="st5" d="M76.57,167.47c-.72-.94,4.41-8.24,5.39-9.53,2.81-3.69,10.41-11.52,14.49-13.12,1.76-.69,10.42-2.04,10.53-.18.04.71-4.46,6.71-5.33,7.63-6.71,7.12-16.28,11.34-25.09,15.2h0Z"/>
  </g>
</svg>