<?xml version="1.0" encoding="UTF-8"?>
<svg id="Layer_1" xmlns="http://www.w3.org/2000/svg" version="1.1" viewBox="0 0 1030.76 220.17">
  <!-- Generator: Adobe Illustrator 30.0.0, SVG Export Plug-In . SVG Version: 2.1.1 Build 123)  -->
  <defs>
    <style>
      .st0 {
        fill: #fff;
      }
    </style>
  </defs>
  <polygon class="st0" points="254.98 48.38 255.78 36.32 258.7 48.58 266.03 72.56 273.13 72.56 280.01 48.58 282.79 36.32 283.48 48.38 285.57 72.24 294.31 72.24 289.1 29.67 277.3 29.67 271.6 52.42 269.88 62.02 267.82 52.42 261.66 29.67 249.4 29.67 244.7 72.24 253.09 72.24 254.98 48.38"/>
  <polygon class="st0" points="329.46 65.34 310.61 65.34 310.61 53.74 323.53 53.74 323.53 47.12 310.61 47.12 310.61 36.43 327.66 36.43 327.66 29.67 301.68 29.67 301.68 72.24 329.46 72.24 329.46 65.34"/>
  <path class="st0" d="M344.81,72.45c1.85.14,3.7.22,5.53.26,4.45.03,8.27-.84,11.45-2.64,3.18-1.8,5.62-4.41,7.32-7.84,1.7-3.43,2.55-7.57,2.55-12.42,0-6.51-1.67-11.57-5.01-15.18-3.34-3.61-8.55-5.41-15.64-5.41-1.3,0-2.65.03-4.04.11-1.39.08-2.7.15-3.92.23-1.23.07-2.24.11-3.04.11h-3.67v42.57h0s3.32.01,3.32.01c1.59,0,3.31.07,5.16.2ZM345.33,36.13c.58-.12,1.31-.21,2.21-.29.89-.07,1.78-.11,2.66-.11,2.71,0,4.96.49,6.76,1.45,1.8.96,3.14,2.54,4.04,4.74.9,2.19,1.35,5.3,1.35,8.85s-.47,6.45-1.42,8.69c-.95,2.24-2.26,3.9-3.94,4.97s-3.64,1.61-5.87,1.63c-1.03.02-2.07-.01-3.12-.09s-1.93-.21-2.66-.4h-.01s0-29.44,0-29.44Z"/>
  <rect class="st0" x="379.46" y="29.67" width="9.05" height="42.57"/>
  <path class="st0" d="M425.52,71.44c1-.34,1.88-.66,2.64-.97v-7.42c-.49.4-1.26.81-2.29,1.22-1.03.42-2.2.76-3.52,1.05-1.32.29-2.62.43-3.9.43-2.75,0-5.08-.64-6.99-1.93-1.91-1.29-3.36-3.07-4.34-5.34-.99-2.28-1.48-4.91-1.48-7.91s.53-5.56,1.6-7.68c1.07-2.12,2.54-3.74,4.41-4.87,1.88-1.13,4.02-1.69,6.45-1.69,1.87,0,3.43.14,4.68.44,1.25.29,2.24.63,2.98,1,.74.37,1.29.67,1.65.9l1.2-7.79c-.74-.16-1.59-.36-2.53-.62-.95-.26-2.12-.5-3.5-.72-1.38-.22-3.1-.33-5.14-.33-2.88,0-5.59.46-8.12,1.4-2.53.94-4.76,2.33-6.69,4.17-1.93,1.85-3.44,4.13-4.53,6.85-1.09,2.72-1.63,5.87-1.63,9.44h0c0,4.35.84,8.15,2.52,11.4s4.1,5.76,7.25,7.55c3.15,1.79,6.94,2.68,11.37,2.68,1.7,0,3.19-.12,4.48-.37,1.29-.25,2.43-.55,3.42-.89Z"/>
  <path class="st0" d="M442.86,63.22h15.86l2.82,9.02h9.57l-15.38-42.94h-9.68l-15.41,42.94h9.4l2.81-9.02ZM449.45,42.1l1.35-4.93,1.32,4.93,4.61,14.73h-11.87l4.59-14.73Z"/>
  <polygon class="st0" points="500.03 65.05 484.65 65.05 484.65 29.67 475.77 29.67 475.77 72.24 500.03 72.24 500.03 65.05"/>
  <polygon class="st0" points="548.69 48.58 551.47 36.32 552.16 48.38 554.25 72.24 562.99 72.24 557.78 29.67 545.98 29.67 540.28 52.42 538.56 62.02 536.5 52.42 530.34 29.67 518.08 29.67 513.38 72.24 521.77 72.24 523.66 48.38 524.46 36.32 527.38 48.58 534.71 72.56 541.81 72.56 548.69 48.58"/>
  <path class="st0" d="M577.67,63.22h15.86l2.82,9.02h9.57l-15.38-42.94h-9.68l-15.41,42.94h9.4l2.81-9.02ZM584.26,42.1l1.35-4.93,1.32,4.93,4.61,14.73h-11.87l4.59-14.73Z"/>
  <path class="st0" d="M619.55,56.03c2.25,0,4.02-.03,5.3-.1.08,0,.15,0,.23-.01.97.11,1.8.58,2.5,1.43.73.9,1.37,2.02,1.92,3.38.55,1.36,1.08,2.78,1.59,4.27s1.06,2.87,1.65,4.15c.42.92.72,1.58.9,1.99.18.41.39.78.64,1.1v.02s9.93,0,9.93,0c-.28-.52-.57-1.03-.87-1.55-.29-.52-.58-1.04-.87-1.58-.78-1.38-1.51-2.87-2.19-4.47-.67-1.6-1.36-3.16-2.06-4.67s-1.46-2.84-2.29-4c-.52-.73-1.1-1.31-1.73-1.77.65-.27,1.28-.58,1.86-.93,1.65-1.02,2.93-2.45,3.85-4.27.91-1.82,1.37-4.12,1.37-6.89,0-2.47-.42-4.53-1.26-6.19-.84-1.66-1.98-2.99-3.42-3.97-1.44-.98-3.08-1.69-4.91-2.12-1.83-.43-3.74-.64-5.73-.64-2.69,0-5,.08-6.93.23-1.93.15-3.62.23-5.07.23h-3.38v42.57h8.97v-16.21ZM622.08,35.73c.92-.09,1.82-.13,2.72-.13,2.03,0,3.6.29,4.73.87,1.12.59,1.91,1.39,2.36,2.41.45,1.02.67,2.18.67,3.48,0,2.31-.61,4.15-1.82,5.51-1.22,1.37-3.03,2.05-5.46,2.05h-1.82c-.75,0-1.5-.02-2.22-.06-.72-.03-1.28-.08-1.68-.14v-13.6c.76-.18,1.6-.3,2.52-.39Z"/>
  <rect class="st0" x="650.98" y="29.67" width="9.05" height="42.57"/>
  <path class="st0" d="M666.62,81.53c1.2-.04,2.55-.3,4.04-.8,1.49-.5,2.96-1.23,4.4-2.21,1.44-.98,2.7-2.2,3.78-3.67,1.08-1.47,1.8-3.19,2.16-5.16.4-2.02.59-4.27.56-6.73-.03-2.46-.04-5.08-.04-7.85v-25.44h-9v25.55c0,3.34-.04,6.18-.13,8.51-.09,2.33-.35,4.27-.79,5.84-.59,2.13-1.58,3.76-2.95,4.88-1.37,1.12-2.77,1.96-4.18,2.51l2.15,4.56h0Z"/>
  <path class="st0" d="M721.18,67.93c2.73-3.18,4.1-7.64,4.1-13.39v-24.87h-8.85v23.43c0,3.29-.31,5.84-.93,7.65-.63,1.82-1.54,3.08-2.74,3.8-1.2.71-2.59,1.07-4.41,1.07s-3.35-.35-4.6-1.05c-1.26-.69-2.2-1.95-2.84-3.75-.64-1.8-.96-4.38-.96-7.72l.11-23.43h-8.94l-.09,24.72c0,3.73.56,6.96,1.7,9.7s2.98,4.86,5.52,6.36,5.91,2.25,10.11,2.25h.01c5.81,0,10.08-1.59,12.81-4.77Z"/>
  <path class="st0" d="M741.39,63.22h15.86l2.82,9.02h9.57l-15.38-42.94h-9.68l-15.41,42.94h9.4l2.81-9.02ZM747.98,42.1l1.35-4.93,1.32,4.93,4.61,14.73h-11.87l4.59-14.73Z"/>
  <polygon class="st0" points="809.06 29.67 800.87 29.67 800.87 51.64 801.73 61.12 798.58 54.85 782.62 29.67 774.31 29.67 774.31 72.23 782.45 72.23 782.45 50.72 781.52 41.09 784.94 47.83 800.18 72.24 809.06 72.24 809.06 29.67"/>
  <path class="st0" d="M825.94,63.22h15.86l2.82,9.02h9.57l-15.38-42.94h-9.68l-15.41,42.94h9.4l2.81-9.02ZM832.53,42.1l1.35-4.93,1.32,4.93,4.61,14.73h-11.87l4.59-14.73Z"/>
  <path class="st0" d="M880.63,38.02c1.87-1.13,4.01-1.69,6.44-1.69,1.87,0,3.43.14,4.68.44,1.25.29,2.24.63,2.98,1,.74.37,1.29.67,1.65.9l1.2-7.79c-.75-.16-1.59-.36-2.54-.62-.94-.26-2.11-.5-3.49-.72-1.38-.22-3.1-.33-5.14-.33-2.88,0-5.59.46-8.12,1.4s-4.76,2.32-6.69,4.17c-1.93,1.85-3.44,4.13-4.53,6.85-1.09,2.72-1.63,5.87-1.63,9.44h.02c0,4.35.84,8.15,2.52,11.4s4.1,5.76,7.25,7.55c3.15,1.79,6.94,2.68,11.37,2.68,1.7,0,3.19-.12,4.48-.37,1.28-.25,2.43-.55,3.42-.89,1-.34,1.88-.66,2.64-.97v-7.42c-.49.4-1.26.81-2.29,1.22-1.03.42-2.2.76-3.52,1.05-1.32.29-2.62.43-3.9.43-2.75,0-5.08-.64-6.99-1.93-1.91-1.29-3.36-3.07-4.34-5.34-.99-2.28-1.48-4.91-1.48-7.91s.53-5.56,1.6-7.68c1.07-2.12,2.54-3.74,4.41-4.87Z"/>
  <path class="st0" d="M940.08,72.24l-15.38-42.94h-9.68l-15.41,42.94h9.4l2.81-9.02h15.86l2.82,9.02h9.57ZM913.82,56.83l4.59-14.73,1.35-4.93,1.32,4.93,4.61,14.73h-11.87Z"/>
  <path class="st0" d="M953.7,56.03c2.25,0,4.02-.03,5.3-.1.08,0,.15,0,.23-.01.97.11,1.8.58,2.49,1.43.73.9,1.37,2.02,1.92,3.38.55,1.36,1.08,2.78,1.59,4.27s1.06,2.87,1.65,4.15c.42.92.72,1.58.9,1.99.18.41.39.78.64,1.1v.02s9.93,0,9.93,0c-.28-.52-.57-1.03-.87-1.55-.29-.52-.58-1.04-.87-1.58-.78-1.38-1.51-2.87-2.19-4.47-.67-1.6-1.36-3.16-2.06-4.67s-1.46-2.84-2.29-4c-.52-.73-1.1-1.3-1.73-1.76.65-.28,1.28-.58,1.87-.94,1.65-1.02,2.93-2.45,3.85-4.27.91-1.82,1.37-4.12,1.37-6.89,0-2.47-.42-4.53-1.26-6.19-.84-1.66-1.98-2.99-3.42-3.97-1.44-.98-3.08-1.69-4.91-2.12-1.83-.43-3.74-.64-5.73-.64-2.69,0-5,.08-6.93.23-1.93.15-3.62.23-5.07.23h-3.38v42.57h8.97v-16.21ZM956.23,35.73c.92-.09,1.82-.13,2.72-.13,2.03,0,3.6.29,4.73.87,1.12.59,1.91,1.39,2.36,2.41.45,1.02.67,2.18.67,3.48,0,2.31-.61,4.15-1.82,5.51-1.21,1.37-3.03,2.05-5.46,2.05h-1.82c-.75,0-1.49-.03-2.22-.06-.72-.03-1.28-.08-1.68-.14v-13.6c.76-.18,1.6-.3,2.52-.39Z"/>
  <path class="st0" d="M992.97,72.45c1.85.14,3.7.22,5.53.26,4.44.03,8.26-.84,11.44-2.64,3.18-1.8,5.62-4.41,7.32-7.84s2.55-7.57,2.55-12.42c0-6.51-1.67-11.57-5.01-15.18-3.34-3.61-8.55-5.41-15.64-5.41-1.3,0-2.65.03-4.04.11-1.39.08-2.69.16-3.92.23s-2.24.11-3.04.11h-3.67v42.57h0s3.32.01,3.32.01c1.59,0,3.31.07,5.16.2ZM993.48,36.13c.58-.12,1.31-.21,2.21-.29.89-.07,1.78-.11,2.66-.11,2.71,0,4.96.49,6.76,1.45,1.8.96,3.14,2.54,4.04,4.74.9,2.19,1.35,5.3,1.35,8.85s-.47,6.45-1.42,8.69c-.95,2.24-2.26,3.9-3.94,4.97s-3.64,1.61-5.87,1.63c-1.03.02-2.07-.01-3.12-.09s-1.94-.21-2.66-.4h-.01s0-29.44,0-29.44Z"/>
  <path class="st0" d="M274.62,116.18c4.31-2.59,9.25-3.89,14.83-3.89,4.3,0,7.89.34,10.77,1.02,2.87.69,5.16,1.45,6.85,2.31,1.69.85,2.95,1.54,3.79,2.07l2.77-17.92c-1.71-.35-3.66-.83-5.83-1.42-2.18-.6-4.86-1.14-8.04-1.65-3.19-.51-7.13-.76-11.83-.76-6.63,0-12.86,1.08-18.68,3.23-5.83,2.16-10.95,5.35-15.39,9.59-4.44,4.24-7.91,9.49-10.41,15.75-2.51,6.26-3.76,13.5-3.76,21.71v.02c0,10.01,1.93,18.75,5.8,26.22,3.86,7.47,9.42,13.25,16.67,17.36s15.97,6.16,26.16,6.16c3.91,0,7.34-.29,10.31-.86,2.96-.57,5.59-1.25,7.87-2.04,2.28-.79,4.3-1.54,6.06-2.24v-17.07c-1.14.92-2.9,1.86-5.27,2.8-2.37.95-5.07,1.75-8.1,2.41-3.03.66-6.02.99-8.96.99-6.33,0-11.69-1.48-16.08-4.45-4.39-2.97-7.72-7.06-9.98-12.29s-3.39-11.29-3.39-18.19,1.23-12.78,3.69-17.66c2.46-4.88,5.84-8.61,10.15-11.2Z"/>
  <path class="st0" d="M353.75,96.14l-35.45,98.77h21.67l6.47-20.75h36.46l6.49,20.75h22.01l-35.38-98.77h-22.27ZM351.02,159.47l10.56-33.88,3.1-11.33,3.03,11.33,10.6,33.88h-27.29Z"/>
  <polygon class="st0" points="442.51 97 422.08 97 422.08 194.91 477.89 194.91 477.89 178.37 442.51 178.37 442.51 97"/>
  <rect class="st0" x="494.16" y="97" width="20.82" height="97.91"/>
  <polygon class="st0" points="538.5 194.91 538.51 194.91 559.13 194.91 559.13 154.59 588.25 154.59 588.25 139.17 559.13 139.17 559.13 112.55 597.74 112.55 597.74 97 538.5 97 538.5 194.91"/>
  <path class="st0" d="M672.89,101.79c-6.57-4.06-14.36-6.01-23.36-5.83-8.79.17-16.65,2.02-23.59,5.53s-12.45,8.89-16.54,16.11c-4.09,7.22-6.24,16.48-6.46,27.77-.17,10.19,1.49,19.12,5.01,26.78,3.52,7.66,8.65,13.59,15.42,17.79,6.77,4.2,14.85,6.2,24.25,6.03,8.7-.18,16.41-2.08,23.13-5.7,6.73-3.62,12.04-9.11,15.95-16.47,3.91-7.36,5.97-16.68,6.19-27.97.22-10.23-1.42-19.12-4.91-26.65-3.49-7.53-8.52-13.33-15.09-17.39ZM665.47,172.18c-4.3,5.75-10.12,8.63-17.46,8.63v.02c-5.33,0-9.76-1.55-13.32-4.65-3.56-3.1-6.24-7.26-8.04-12.49-1.8-5.23-2.7-11.07-2.7-17.53,0-8.43,1.15-15.19,3.43-20.29,2.29-5.1,5.33-8.79,9.13-11.07,3.8-2.29,7.98-3.43,12.55-3.43,5.1,0,9.34,1.48,12.72,4.45,3.38,2.96,5.92,7,7.61,12.09s2.54,10.85,2.54,17.26c0,12.25-2.16,21.26-6.46,27.01Z"/>
  <path class="st0" d="M783.08,187.71c-1.8-3.16-3.48-6.59-5.04-10.28s-3.14-7.27-4.74-10.74c-1.6-3.47-3.36-6.54-5.27-9.19-1.18-1.63-2.47-2.97-3.87-4.02,1.48-.63,2.89-1.35,4.21-2.16,3.8-2.35,6.75-5.62,8.86-9.82s3.16-9.48,3.16-15.85c0-5.66-.97-10.41-2.9-14.23s-4.55-6.85-7.87-9.12-7.08-3.89-11.3-4.88-8.61-1.48-13.18-1.48c-6.2,0-11.51.18-15.95.53-4.43.36-8.32.53-11.66.53h-7.78v97.91h20.63v-37.3c5.18,0,9.24-.08,12.19-.23.23-.01.44-.03.67-.04,2.16.29,4.03,1.38,5.58,3.3,1.66,2.07,3.14,4.66,4.41,7.78,1.28,3.12,2.5,6.39,3.66,9.82,1.17,3.42,2.43,6.61,3.79,9.55.97,2.11,1.66,3.64,2.08,4.58.42.95.91,1.79,1.48,2.54v-.02h22.86c-.66-1.19-1.33-2.37-2.01-3.56-.68-1.18-1.35-2.39-2.01-3.62ZM739.37,143.58c-1.74,0-3.44-.04-5.11-.13-1.67-.09-2.97-.2-3.89-.33v.02s-.01-31.3-.01-31.3c1.76-.4,3.69-.69,5.8-.89,2.11-.2,4.19-.3,6.26-.3,4.65,0,8.28.67,10.87,2.01,2.6,1.34,4.41,3.18,5.44,5.53,1.03,2.35,1.55,5.01,1.55,8,0,5.31-1.39,9.54-4.18,12.68-2.79,3.14-6.97,4.71-12.55,4.71h-4.18Z"/>
  <polygon class="st0" points="862.27 147.54 864.24 169.35 857.01 154.92 820.31 97 801.2 97 801.2 194.91 819.9 194.91 819.9 145.43 817.77 123.25 825.63 138.77 860.68 194.91 881.11 194.91 881.11 97 862.27 97 862.27 147.54"/>
  <rect class="st0" x="904.58" y="97" width="20.82" height="97.91"/>
  <path class="st0" d="M1008.75,194.91h22.01l-35.38-98.77h-22.27l-35.45,98.77h21.67l6.47-20.75h36.46l6.49,20.75ZM970.38,159.47l10.56-33.88,3.1-11.33,3.03,11.33,10.6,33.88h-27.29Z"/>
  <polygon class="st0" points="155.93 109.3 155.94 109.3 155.94 109.29 155.93 109.3"/>
  <path class="st0" d="M221.68,173.58c-.18-.3-4.44-2.01-5.76-3.82-2.32-3.18-4.56-8.52-6.17-12.17-17.62-13.97-33.67-33.55-51.31-47.05-.84-.64-1.06-1.59-2.5-1.24v30.83h-19.17v17.92c0,.09-1.16,1.25-1.25,1.25h-40.43v-19.17h-18.34c1.47,5.61,5.05,9.29,8.7,13.39.76.86.97,2.41,1.75,3.25,1.48,1.59,5.6,2.61,6.62,5.06,2.11,5.05-2.76,11.23,2.5,14.22,2.36,1.35,3.41-.1,5.82-.1,3.78,0,11.3.44,14.61,2.14,1.67.87,3.05,5.32,5.6,6.07,2.91.85,10.19-.71,11.96.54,1.85,1.3.77,6.71,1.57,7.54,2.45,2.55,3.79-.21,5.52-.42,2.94-.36,14.99,10.17,17.04,12.93,2.99,4.04,2.55,8.47,3.75,10.42.76,1.23,4.01,1.39,2.92,5.01l51.06-7.52c7.12-9.29-2.09-7.57-3.21-9.12-.19-.25-.41-5.76-.37-6.17.06-.65,1.47-.49,1.94-1.57,2.2-5.09.22-10.79,1-13.11.9-2.66,7.51-6.78,6.15-9.11Z"/>
  <path class="st0" d="M21.73,37.94c.54,5.52,8.95,9.56,10.45,14.64,1.43,4.87-.53,9.39,2.41,15.09.47.9,10.54,13.26,11.31,13.7,1.35.77,3.32.16,4.99.85,1.84.77,2.98,4.15,4.23,4.94,3.7,2.35,10.32,5.6,13.73,8.78,2.2,2.05,2.63,6.8,7.06,6.69.15-.65-.21-4.16,0-4.16h15c-1.66-12.93-.7-27.87,2.36-40.57.85-3.53,3.48-6.67,3.48-10.69V4.26s-70.82-.78-70.82-.78c-2.31,4.86,1.08,6.08,1.61,8.71.7,3.48-.79,13.61-2.06,17.09-1.08,2.96-4.13,4.75-3.75,8.66ZM40.89,37.62c2.46-.42,10.93.97,12.14-.78,1.21-1.75-.53-11.54.84-11.73h9.53c.48,2.56-.84,10.01.36,11.73,1.18,1.7,9.68.37,12.14.78v9.17h-12.5v12.5h-10v-12.5h-12.51v-9.17Z"/>
  <polygon class="st0" points="75.91 137.65 75.89 137.64 75.89 137.66 75.91 137.65"/>
  <path class="st0" d="M20.02,88.83c.27,2.78,3.31,4.8,5.03,6.74.5,1.79-2.04.71-1.61,2.4.67,2.63,4.92,5.44,6.61,7.59.23.59-2.44.85-2.48,1.66-.02.56,6.99,6.75,8.32,7.51l-2.49,1.65c.64,1.86,8.29,6.14,8.29,6.67,0,.26-1.38,1.1-1.51,1.83-.45,2.53,7.76,4.82,8.22,5.27,1.67,1.63-2.83,1.4-1.66,3.31,1.2.73,8,3.91,8.28,4.29.28.38-.91,1.66-.05,2.84,1.49,2.03,8.26,4.26,8.88,5.35.37.65-.66,2.08-.4,2.44.33.47,9.26,4.04,10.79,4.28l-1.66,2.48c5.94.73,11.22,6.34,16.67,6.27-2.2-1.54-4.01-3.03-5.81-5.03-2.24-2.48-13.09-16.92-10.86-19.56l3.31.83v-29.58c0-.26-1.69-1.54-2.08-2.07l-2.07,2.48c.49-1.91-5.73-11.45-6.66-10.83l-1.67,2.5-5.03-9.16c-1.98-.96-2.49,3.36-3.31,2.49-1.06-1.14-4.15-8.74-6.93-8.21-.76.15-1.58,1.52-1.84,1.52-.5,0-5.48-7.52-6.66-7.46-.8.04-1.06,2.71-1.66,2.48-1.67-1.43-5.24-6.06-7.45-5.89-.76.06-.99,2.5-1.72,2.54-.24.01-2.54-2.52-3.48-3.18-3.99-2.81-10.47-7.56-14.68-9.49-.8-.36-2.57-1.34-3.1-.23l14.14,20.89c.44,1.75-1.84.63-1.67,2.38Z"/>
  <polygon class="st0" points="132.59 83.46 132.59 83.47 132.61 83.47 132.59 83.46"/>
  <path class="st0" d="M132.59,83.47h-33.32v17.92c0,.09-1.16,1.25-1.25,1.25h-18.76v33.34h19.17l.83,19.17h33.34v-19.17c4.29.13,8.64-.17,12.95-.04,1.42.04,7.05,1.88,7.05-.38v-32.51c0-.09-1.16-1.25-1.25-1.25h-18.76v-18.33ZM142.59,111.8v15h-19.17v19.17h-15v-19.17h-19.17v-15h19.17v-19.17h15v19.17h19.17Z"/>
  <polygon class="st0" points="96.33 80.13 96.33 80.13 96.32 80.13 96.33 80.13"/>
  <path class="st0" d="M95.92,58.46c-1.11,2.09,1.25,10.48.83,10.83-.25.21-2.07-.3-2.41.05-.7.72-.33,10.09,1.99,10.79h37.5c1.89,0,2.07-8.74,2.93-10.41l-3.34.4.82-11.67-3.32.83c.59-4.23.54-8.27-.01-12.5l-2.49.83c-.04-3.65.39-7.33-.85-10.84l-2.48.84-.85-10-3.32.83c-1.08-8.21-1.76-19.01-4.63-26.67-.36-.95-.05-2.13-1.62-1.67-1.38.4-4.98,24.78-5.43,28.34l-3.32-.83-.85,10-2.48-1.66c-1.31,3.78-.76,7.74-.85,11.67l-2.49-.84c-1.47,4.44-.31,8.07-.01,12.51l-3.32-.83Z"/>
  <path class="st0" d="M95.07,180.15c-6.61-5.72-4.14-6.24-4.09-12.92.05-6.1-6.34-4.52-10.29-5.61-2.25-.62-6.52-3-8.6-3.09-.36-.02-.33,1.65-.78,1.67-1.21.05-5.25-2.5-7.6-2.56-1.57-.04-.98,1.24-1.3,1.5h0c-.67.55-12.71-2.57-16.78-1.49-.65.17-.54,1.66-1.04,1.69-2.36.12-9.81-3.47-8.7,1.66-2.84-1.44-6.09-.7-9.16-.83l.83,2.49-10,.86.83,1.64c-4.82,1.55-11.88,1.88-16.31,4.13-1.2.6-2.37.76-2.03,2.54.58.6,13.75,2.13,16.35,3.18,1.46.58,6.43,4.4,8.4,4.99,1.85.56,3.96-.24,5.51.14.85.21.79,2,1.92,2.4,1.86.65,4.5-.3,6.42.14.62.14.51,1.47,1.14,1.63,2.87.71,6.05-1.23,8.04-.85.59.11.48,1.52,1.12,1.68,4.1,1.04,25.61-.14,30.5-1,4.89-.86,10.59-3.28,15.62-3.99Z"/>
  <path class="st0" d="M159.21,106.43l23.81,22.02c1.35-2.02,4.39-1.91,3.78-4.55-.16-.48-2.55-.44-1.69-1.24.95-.88,9.15-4.79,9.15-6.26l-3.31-2.07c2.87-1.16,11.68-6.78,6.66-8.76,1.47-1.54,7.49-7.28,6.27-8.8-.51-.64-2.33-.59-2.1-1.21.6-1.59,9.24-7.57,4.35-8.9-.39-3.34,15.19-22.05,13.98-23.2h-.01c-1.74-1.65-19.52,12.12-22.09,14.16-1.16-4.2-4.42-.66-6.72,1.65-.98.99-1.19,3.67-2.78,2.41-.19-.15.04-1.23-.19-1.4-1.5-1.14-6.7,5.83-7.81,7.35-.56.26-.86-2.44-1.66-2.48-.83-.04-6.54,7.24-6.26,9.15l-3.31-2.49c-1.17,1.21-3.86,8.01-4.2,8.33-1.69,1.57-1.34-2.46-2.89-1.66-.87.45-5.08,6.89-2.98,7.95Z"/>
  <path class="st0" d="M95.33,180.83c-6.03,2.37-17.27,13.95-21.43,19.41-1.45,1.9-9.05,12.7-7.98,14.09h0c13.03-5.71,27.18-11.95,37.11-22.48,1.29-1.36,7.94-10.23,7.88-11.28-.16-2.76-12.97-.76-15.57.26Z"/>
</svg>