<?xml version="1.0" encoding="UTF-8"?>
<svg id="Layer_1" data-name="Layer 1" xmlns="http://www.w3.org/2000/svg" xmlns:xlink="http://www.w3.org/1999/xlink" viewBox="0 0 221.87 220.17">
  <defs>
    <style>
      .cls-1 {
        fill: url(#linear-gradient-2);
      }

      .cls-2 {
        fill: url(#linear-gradient-4);
      }

      .cls-3 {
        fill: url(#linear-gradient-3);
      }

      .cls-4 {
        fill: url(#linear-gradient-5);
      }

      .cls-5 {
        fill: url(#linear-gradient);
      }

      .cls-6 {
        fill: #275544;
      }

      .cls-7 {
        fill: #6b9080;
      }
    </style>
    <linearGradient id="linear-gradient" x1="7.55" y1="113.22" x2="89.24" y2="113.22" gradientUnits="userSpaceOnUse">
      <stop offset="0" stop-color="#275544"/>
      <stop offset="1" stop-color="#6b9080"/>
    </linearGradient>
    <linearGradient id="linear-gradient-2" x1="94.02" y1="40.06" x2="136.77" y2="40.06" xlink:href="#linear-gradient"/>
    <linearGradient id="linear-gradient-3" x1="0" y1="171.48" x2="95.08" y2="171.48" xlink:href="#linear-gradient"/>
    <linearGradient id="linear-gradient-4" x1="158.63" y1="95.88" x2="220.18" y2="95.88" xlink:href="#linear-gradient"/>
    <linearGradient id="linear-gradient-5" x1="65.81" y1="196.75" x2="110.9" y2="196.75" xlink:href="#linear-gradient"/>
  </defs>
  <path class="cls-6" d="M155.93,109.3c1.45-.36,1.67.6,2.51,1.24,17.64,13.5,33.69,33.08,51.31,47.05,1.61,3.65,3.85,8.99,6.17,12.17,1.32,1.81,5.58,3.52,5.76,3.82,1.36,2.33-5.25,6.45-6.15,9.11-.78,2.32,1.2,8.02-1,13.11-.47,1.08-1.88.92-1.94,1.57-.04.41.18,5.92.37,6.17,1.12,1.55,10.33-.17,3.21,9.12l-51.06,7.52c1.09-3.62-2.16-3.78-2.92-5.01-1.2-1.95-.76-6.38-3.75-10.42-2.05-2.76-14.1-13.29-17.04-12.93-1.73.21-3.07,2.97-5.52.42-.8-.83.28-6.24-1.57-7.54-1.77-1.25-9.05.31-11.96-.54-2.55-.75-3.93-5.2-5.6-6.07-3.31-1.7-10.83-2.13-14.61-2.14-2.41,0-3.46,1.45-5.82.1-5.26-2.99-.39-9.17-2.5-14.22-1.02-2.45-5.14-3.47-6.62-5.06-.78-.84-.99-2.39-1.75-3.25-3.65-4.1-7.23-7.78-8.7-13.39h18.34v19.17h40.43c.09,0,1.25-1.16,1.25-1.25v-17.92h19.17v-30.84Z"/>
  <path class="cls-6" d="M96.75,4.28v42.93c0,4.02-2.63,7.16-3.48,10.69-3.06,12.7-4.02,27.64-2.36,40.57h-15c-.21,0,.15,3.51,0,4.16-4.43.11-4.86-4.64-7.06-6.69-3.41-3.18-10.03-6.43-13.73-8.78-1.25-.79-2.39-4.17-4.23-4.94-1.67-.69-3.64-.08-4.99-.85-.77-.44-10.84-12.8-11.31-13.7-2.94-5.7-.98-10.22-2.41-15.09-1.5-5.08-9.91-9.12-10.45-14.64-.38-3.91,2.67-5.7,3.75-8.66,1.27-3.48,2.76-13.61,2.06-17.09-.53-2.63-3.92-3.85-1.61-8.71l70.81.78ZM40.9,46.79h12.5v12.5h10v-12.5h12.5v-9.17c-2.46-.41-10.96.92-12.14-.78s.12-9.17-.36-11.73h-9.53c-1.37.19.37,9.98-.84,11.73s-9.68.36-12.14.78v9.17Z"/>
  <path class="cls-5" d="M75.91,137.65l-3.33-.83c-2.23,2.64,8.62,17.08,10.86,19.56,1.8,2,3.61,3.49,5.81,5.03-5.45.07-10.73-5.54-16.67-6.27l1.66-2.48c-1.53-.24-10.46-3.81-10.79-4.28-.26-.36.77-1.79.4-2.44-.62-1.09-7.39-3.32-8.88-5.35-.86-1.18.33-2.46.05-2.84s-7.08-3.56-8.28-4.29c-1.17-1.91,3.33-1.68,1.66-3.31-.46-.45-8.67-2.74-8.22-5.27.13-.73,1.51-1.57,1.51-1.83,0-.53-7.65-4.81-8.29-6.67l2.49-1.65c-1.33-.76-8.34-6.95-8.32-7.51.04-.81,2.71-1.07,2.48-1.66-1.69-2.15-5.94-4.96-6.61-7.59-.43-1.69,2.11-.61,1.61-2.4-1.72-1.94-4.76-3.96-5.03-6.74-.17-1.75,2.11-.63,1.67-2.38l-14.14-20.89c.53-1.11,2.3-.13,3.1.23,4.21,1.93,10.69,6.68,14.68,9.49.94.66,3.24,3.19,3.48,3.18.73-.04.96-2.48,1.72-2.54,2.21-.17,5.78,4.46,7.45,5.89.6.23.86-2.44,1.66-2.48,1.18-.06,6.16,7.46,6.66,7.46.26,0,1.08-1.37,1.84-1.52,2.78-.53,5.87,7.07,6.93,8.21.82.87,1.33-3.45,3.31-2.49l5.03,9.16,1.67-2.5c.93-.62,7.15,8.92,6.66,10.83l2.07-2.48c.39.53,2.08,1.81,2.08,2.07v29.59Z"/>
  <path class="cls-7" d="M132.59,83.46v18.34h18.76c.09,0,1.25,1.16,1.25,1.25v32.51c0,2.26-5.63.42-7.05.38-4.31-.13-8.66.17-12.95.04v19.17h-33.34l-.83-19.17h-19.17v-33.34h18.76c.09,0,1.25-1.16,1.25-1.25v-17.92h33.34ZM123.42,92.63h-15v19.17h-19.17v15h19.17v19.17h15v-19.17h19.17v-15h-19.17v-19.17Z"/>
  <path class="cls-1" d="M96.33,80.13c-2.32-.7-2.69-10.07-1.99-10.79.34-.35,2.16.16,2.41-.05.42-.35-1.94-8.74-.83-10.83l3.32.83c-.3-4.44-1.46-8.07.01-12.51l2.49.84c.09-3.93-.46-7.89.85-11.67l2.48,1.66.85-10,3.32.83c.45-3.56,4.05-27.94,5.43-28.34,1.57-.46,1.26.72,1.62,1.67,2.87,7.66,3.55,18.46,4.63,26.67l3.32-.83.85,10,2.48-.84c1.24,3.51.81,7.19.85,10.84l2.49-.83c.55,4.23.6,8.27.01,12.5l3.32-.83-.82,11.67,3.34-.4c-.86,1.67-1.04,10.41-2.93,10.41h-37.51Z"/>
  <path class="cls-3" d="M62.41,159.14c.32-.26-.27-1.54,1.3-1.5,2.35.06,6.39,2.61,7.6,2.56.45-.02.42-1.69.78-1.67,2.08.09,6.35,2.47,8.6,3.09,3.95,1.09,10.34-.49,10.29,5.61-.05,6.68-2.52,7.2,4.09,12.92-5.03.71-10.73,3.13-15.62,3.99-4.89.86-26.4,2.04-30.5,1-.64-.16-.53-1.57-1.12-1.68-1.99-.38-5.17,1.56-8.04.85-.63-.16-.52-1.49-1.14-1.63-1.92-.44-4.56.51-6.42-.14-1.13-.4-1.07-2.19-1.92-2.4-1.55-.38-3.66.42-5.51-.14-1.97-.59-6.94-4.41-8.4-4.99-2.6-1.05-15.77-2.58-16.35-3.18-.34-1.78.83-1.94,2.03-2.54,4.43-2.25,11.49-2.58,16.31-4.13l-.83-1.64,10-.86-.83-2.49c3.07.13,6.32-.61,9.16.83-1.11-5.13,6.34-1.54,8.7-1.66.5-.03.39-1.52,1.04-1.69,4.07-1.08,16.11,2.04,16.78,1.49Z"/>
  <path class="cls-2" d="M220.11,63.46c1.21,1.15-14.37,19.86-13.98,23.2,4.89,1.33-3.75,7.31-4.35,8.9-.23.62,1.59.57,2.1,1.21,1.22,1.52-4.8,7.26-6.27,8.8,5.02,1.98-3.79,7.6-6.66,8.76l3.31,2.07c0,1.47-8.2,5.38-9.15,6.26-.86.8,1.53.76,1.69,1.24.61,2.64-2.43,2.53-3.78,4.55l-23.81-22.02c-2.1-1.06,2.11-7.5,2.98-7.95,1.55-.8,1.2,3.23,2.89,1.66.34-.32,3.03-7.12,4.2-8.33l3.31,2.49c-.28-1.91,5.43-9.19,6.26-9.15.8.04,1.1,2.74,1.66,2.48,1.11-1.52,6.31-8.49,7.81-7.35.23.17,0,1.25.19,1.4,1.59,1.26,1.8-1.42,2.78-2.41,2.3-2.31,5.56-5.85,6.72-1.65,2.57-2.04,20.35-15.81,22.09-14.16Z"/>
  <path class="cls-4" d="M65.92,214.33c-1.07-1.39,6.53-12.19,7.98-14.09,4.16-5.46,15.4-17.04,21.43-19.41,2.6-1.02,15.41-3.02,15.57-.26.06,1.05-6.59,9.92-7.88,11.28-9.93,10.53-24.08,16.77-37.11,22.49Z"/>
</svg>